<svg width="11" height="8" viewBox="0 0 11 8" fill="none" xmlns="http://www.w3.org/2000/svg">
<path d="M0.63023 2.35092L0.630204 2.35095L0.62839 2.34895C0.343721 2.03562 0.304609 1.50819 0.628305 1.18323C0.772158 1.0094 0.966755 0.909811 1.16987 0.900686C1.37492 0.891473 1.58016 0.974899 1.7407 1.15106L5.5 5.07438L9.2593 1.15107C9.41983 0.974902 9.62507 0.891474 9.83013 0.900687C10.0332 0.909812 10.2278 1.0094 10.3717 1.18323C10.6954 1.50819 10.6563 2.03562 10.3716 2.34895L10.3716 2.34898L10.3698 2.35093L6.05568 6.84954C5.894 7.02695 5.69667 7.1 5.5 7.1C5.30333 7.1 5.106 7.02695 4.94432 6.84954L0.63023 2.35092Z" fill="#1C4D73" stroke="#1C4D73" stroke-width="0.2"/>
</svg>
